<svg id="svg" version="1.1" xmlns="http://www.w3.org/2000/svg" xmlns:xlink="http://www.w3.org/1999/xlink" width="400" height="400" viewBox="0, 0, 400,400"><g id="svgg"><path id="path0" d="M86.477 293.572 C 86.526 294.217,86.688 294.669,86.838 294.576 C 86.988 294.484,87.221 294.946,87.355 295.604 C 87.490 296.262,87.710 297.340,87.845 298.000 C 87.980 298.660,88.250 299.200,88.445 299.200 C 88.640 299.200,88.800 299.549,88.800 299.976 C 88.800 300.403,88.980 300.864,89.200 301.000 C 89.420 301.136,89.600 301.681,89.600 302.211 C 89.600 302.742,89.960 303.817,90.400 304.600 C 90.840 305.383,91.203 306.514,91.206 307.112 C 91.211 307.961,91.297 308.068,91.600 307.600 C 91.914 307.115,91.989 307.172,91.994 307.900 C 91.997 308.395,92.193 308.800,92.428 308.800 C 92.663 308.800,92.797 309.205,92.726 309.700 C 92.655 310.195,92.913 310.949,93.299 311.376 C 93.839 311.972,93.885 312.226,93.501 312.470 C 93.146 312.695,93.212 312.790,93.724 312.794 C 94.122 312.797,94.348 312.961,94.226 313.158 C 94.104 313.355,94.278 313.621,94.612 313.749 C 95.043 313.915,95.149 314.304,94.977 315.091 C 94.814 315.840,94.857 316.027,95.111 315.668 C 95.454 315.182,96.685 317.370,97.027 319.075 C 97.079 319.336,97.499 319.955,97.961 320.450 C 98.422 320.946,98.800 321.671,98.800 322.061 C 98.800 322.452,99.147 322.957,99.571 323.184 C 100.626 323.749,102.874 327.156,102.544 327.691 C 102.392 327.936,102.461 328.009,102.703 327.860 C 103.101 327.614,105.616 330.667,106.113 332.000 C 106.236 332.330,106.351 332.396,106.368 332.147 C 106.386 331.898,107.118 332.413,107.997 333.291 C 108.875 334.169,109.477 335.076,109.335 335.305 C 109.184 335.549,109.269 335.604,109.538 335.438 C 109.810 335.270,110.000 335.404,110.000 335.764 C 110.000 336.169,110.224 336.289,110.666 336.119 C 111.129 335.942,111.239 336.014,111.026 336.357 C 110.714 336.862,111.817 338.400,112.491 338.400 C 112.949 338.400,114.179 339.598,113.729 339.606 C 113.548 339.609,113.850 339.849,114.400 340.139 C 114.950 340.428,115.372 340.831,115.338 341.033 C 115.304 341.235,115.529 341.632,115.838 341.916 C 116.285 342.326,116.400 342.328,116.400 341.927 C 116.400 341.649,116.714 341.867,117.097 342.411 C 117.480 342.955,117.750 343.535,117.697 343.700 C 117.644 343.865,117.881 344.000,118.224 344.000 C 118.567 344.000,118.733 344.184,118.594 344.410 C 118.455 344.635,118.491 344.770,118.675 344.710 C 118.859 344.649,119.938 345.500,121.074 346.600 C 122.209 347.700,123.425 348.836,123.777 349.124 C 124.130 349.412,124.313 349.817,124.185 350.024 C 124.057 350.231,124.368 350.403,124.876 350.406 C 125.619 350.411,125.683 350.488,125.200 350.800 C 124.724 351.108,124.807 351.190,125.600 351.200 C 126.393 351.210,126.476 351.292,126.000 351.600 C 125.492 351.928,125.512 351.989,126.129 351.994 C 126.529 351.997,127.069 352.228,127.329 352.508 C 127.588 352.787,128.527 353.822,129.416 354.808 C 130.305 355.793,131.205 356.668,131.416 356.751 C 131.627 356.834,132.035 356.992,132.323 357.103 C 132.613 357.214,132.737 357.587,132.602 357.939 C 132.468 358.289,132.479 358.455,132.626 358.307 C 132.942 357.991,134.000 358.955,134.000 359.559 C 134.000 359.788,134.272 359.871,134.605 359.743 C 134.998 359.592,135.145 359.701,135.026 360.055 C 134.922 360.367,136.011 361.626,137.574 363.000 C 139.076 364.320,140.533 365.799,140.813 366.286 C 141.092 366.774,141.475 367.077,141.663 366.961 C 141.852 366.845,142.127 367.067,142.276 367.454 C 142.425 367.842,143.165 368.709,143.920 369.380 C 146.551 371.718,148.000 373.229,148.000 373.637 C 148.000 373.863,148.180 373.936,148.400 373.800 C 148.620 373.664,148.800 373.863,148.800 374.243 C 148.800 374.623,148.911 374.823,149.046 374.688 C 149.304 374.430,158.800 383.801,158.800 384.314 C 158.800 384.477,159.205 384.795,159.700 385.020 C 160.195 385.245,160.555 385.648,160.500 385.915 C 160.445 386.182,160.593 386.400,160.829 386.400 C 161.421 386.400,162.418 387.449,162.114 387.752 C 161.978 387.889,162.087 388.000,162.357 388.000 C 162.627 388.000,162.742 388.171,162.612 388.380 C 162.483 388.589,162.788 388.978,163.289 389.245 C 164.143 389.700,164.162 389.685,163.600 389.001 C 163.037 388.317,163.053 388.305,163.860 388.807 C 164.369 389.124,164.627 389.585,164.492 389.937 C 164.344 390.322,164.429 390.430,164.732 390.242 C 165.013 390.068,165.200 390.202,165.200 390.576 C 165.200 390.919,165.387 391.200,165.615 391.200 C 165.843 391.200,167.897 393.076,170.179 395.369 C 172.461 397.662,174.434 399.432,174.564 399.303 C 174.694 399.173,174.800 399.277,174.800 399.533 C 174.800 399.887,192.971 400.000,250.000 400.000 C 328.844 400.000,325.370 400.067,325.166 398.545 C 325.147 398.404,325.321 398.172,325.553 398.029 C 325.785 397.886,326.020 397.177,326.075 396.454 C 326.130 395.731,326.315 395.052,326.487 394.946 C 326.659 394.840,326.800 394.403,326.800 393.976 C 326.800 393.549,326.980 393.200,327.200 393.200 C 327.420 393.200,327.600 392.671,327.600 392.024 C 327.600 391.377,327.780 390.736,328.000 390.600 C 328.220 390.464,328.400 389.903,328.400 389.353 C 328.400 388.803,328.535 388.436,328.700 388.538 C 328.865 388.640,329.039 388.336,329.086 387.862 C 329.228 386.431,329.429 385.638,329.722 385.345 C 329.875 385.192,330.003 384.602,330.006 384.033 C 330.011 383.219,330.095 383.127,330.400 383.600 C 330.688 384.045,330.789 383.807,330.794 382.676 C 330.797 381.838,330.960 381.251,331.155 381.372 C 331.350 381.493,331.502 381.368,331.492 381.096 C 331.432 379.428,331.649 378.383,332.010 378.606 C 332.235 378.745,332.373 378.711,332.316 378.530 C 332.159 378.030,333.292 373.600,333.577 373.600 C 333.714 373.600,333.866 373.105,333.916 372.500 C 333.966 371.895,334.185 371.340,334.403 371.267 C 334.622 371.193,334.800 370.529,334.800 369.790 C 334.800 369.052,334.991 368.329,335.224 368.185 C 335.457 368.041,335.594 367.446,335.528 366.862 C 335.462 366.278,335.594 365.832,335.819 365.872 C 336.045 365.911,336.269 365.479,336.316 364.912 C 336.362 364.345,336.603 363.638,336.849 363.340 C 337.096 363.043,337.164 362.800,337.000 362.800 C 336.836 362.800,336.928 362.528,337.204 362.195 C 337.480 361.862,337.773 361.018,337.854 360.318 C 337.936 359.618,338.155 358.945,338.341 358.823 C 338.527 358.700,338.646 358.187,338.605 357.683 C 338.564 357.179,338.788 356.623,339.101 356.447 C 339.415 356.272,339.640 356.007,339.602 355.858 C 339.563 355.710,339.671 354.826,339.841 353.894 C 340.011 352.962,340.116 352.065,340.075 351.900 C 340.034 351.735,340.249 351.600,340.553 351.600 C 340.882 351.600,341.121 351.153,341.141 350.500 C 341.203 348.555,341.677 346.400,342.044 346.400 C 342.240 346.400,342.400 345.860,342.400 345.200 C 342.400 344.540,342.580 344.000,342.800 344.000 C 343.020 344.000,343.200 343.640,343.200 343.200 C 343.200 341.896,342.745 342.013,336.200 345.009 C 335.100 345.513,333.300 346.322,332.200 346.808 C 331.100 347.294,329.390 348.050,328.400 348.488 C 327.410 348.926,326.060 349.518,325.400 349.804 C 324.740 350.090,322.607 351.061,320.661 351.962 C 318.714 352.863,317.039 353.600,316.939 353.600 C 316.838 353.600,315.911 353.979,314.878 354.442 C 313.845 354.905,312.370 355.554,311.600 355.884 C 310.830 356.213,309.435 356.824,308.500 357.242 C 307.565 357.659,306.035 358.341,305.100 358.758 C 304.165 359.176,302.770 359.787,302.000 360.116 C 299.606 361.141,296.683 362.463,294.625 363.451 C 292.040 364.693,289.221 364.248,283.000 361.619 C 282.560 361.433,281.570 361.064,280.800 360.800 C 280.030 360.536,279.040 360.169,278.600 359.986 C 278.160 359.803,276.630 359.272,275.200 358.807 C 273.770 358.343,272.287 357.791,271.905 357.581 C 271.523 357.371,270.936 357.200,270.600 357.200 C 270.264 357.200,269.677 357.041,269.295 356.847 C 267.786 356.079,266.366 355.558,260.420 353.592 C 257.021 352.468,254.051 351.430,253.820 351.285 C 253.589 351.141,253.220 350.987,253.000 350.944 C 252.780 350.901,249.990 349.942,246.800 348.813 C 243.610 347.685,240.190 346.491,239.200 346.160 C 238.210 345.830,237.040 345.401,236.600 345.206 C 236.160 345.012,234.630 344.469,233.200 344.000 C 231.770 343.531,230.240 342.997,229.800 342.814 C 229.360 342.631,228.370 342.264,227.600 342.000 C 226.830 341.736,225.840 341.372,225.400 341.193 C 224.960 341.014,224.240 340.779,223.800 340.673 C 223.360 340.566,221.470 339.908,219.600 339.210 C 216.497 338.052,206.709 334.650,201.800 333.023 C 200.700 332.658,199.440 332.207,199.000 332.020 C 198.560 331.834,197.570 331.464,196.800 331.200 C 196.030 330.936,195.040 330.569,194.600 330.386 C 194.160 330.203,192.630 329.669,191.200 329.200 C 189.770 328.731,188.240 328.191,187.800 328.000 C 187.360 327.809,186.280 327.424,185.400 327.145 C 184.520 326.865,183.629 326.493,183.420 326.318 C 183.211 326.143,182.637 326.000,182.144 326.000 C 181.651 326.000,181.158 325.856,181.049 325.679 C 180.940 325.503,179.928 325.107,178.800 324.800 C 177.672 324.493,176.660 324.097,176.551 323.921 C 176.442 323.744,176.001 323.600,175.571 323.600 C 175.141 323.600,174.477 323.428,174.095 323.217 C 173.460 322.866,169.529 321.473,162.200 318.999 C 160.660 318.480,157.330 317.308,154.800 316.397 C 152.270 315.485,149.390 314.474,148.400 314.149 C 147.410 313.825,146.240 313.402,145.800 313.208 C 144.942 312.831,140.147 311.129,137.200 310.155 C 136.210 309.827,135.040 309.407,134.600 309.220 C 134.160 309.034,133.170 308.664,132.400 308.400 C 131.630 308.136,130.640 307.777,130.200 307.603 C 129.760 307.429,128.500 307.011,127.400 306.674 C 126.300 306.337,123.870 305.496,122.000 304.804 C 120.130 304.113,117.790 303.272,116.800 302.936 C 108.916 300.258,104.479 298.711,103.800 298.403 C 103.360 298.204,102.190 297.769,101.200 297.437 C 96.343 295.808,92.764 294.497,92.528 294.262 C 92.384 294.118,91.877 294.000,91.400 294.000 C 90.923 294.000,90.410 293.877,90.259 293.726 C 89.969 293.436,87.214 292.416,86.694 292.406 C 86.525 292.403,86.427 292.928,86.477 293.572 " stroke="none" fill="#53dccb" fill-rule="evenodd"></path><path id="path1" d="M207.900 0.267 C 207.295 0.369,206.800 0.609,206.800 0.800 C 206.800 0.990,206.434 1.262,205.987 1.404 C 205.540 1.546,204.738 2.098,204.205 2.631 C 203.672 3.164,202.998 3.600,202.706 3.600 C 202.415 3.600,201.917 3.960,201.600 4.400 C 201.283 4.840,200.743 5.200,200.400 5.200 C 200.057 5.200,199.517 5.560,199.200 6.000 C 198.883 6.440,198.427 6.800,198.187 6.800 C 197.947 6.800,197.402 7.115,196.975 7.500 C 196.549 7.885,195.705 8.455,195.100 8.768 C 194.495 9.080,194.000 9.485,194.000 9.668 C 194.000 9.850,193.640 10.000,193.200 10.000 C 192.760 10.000,192.400 10.172,192.400 10.381 C 192.400 10.591,191.770 11.061,191.000 11.427 C 190.230 11.792,189.600 12.251,189.600 12.446 C 189.600 12.641,189.280 12.800,188.888 12.800 C 188.497 12.800,187.917 13.160,187.600 13.600 C 187.283 14.040,186.827 14.400,186.587 14.400 C 186.347 14.400,185.802 14.715,185.375 15.100 C 184.949 15.485,184.105 16.055,183.500 16.368 C 182.895 16.680,182.400 17.085,182.400 17.268 C 182.400 17.450,182.164 17.600,181.875 17.600 C 181.587 17.600,181.002 17.915,180.575 18.300 C 180.149 18.685,179.305 19.255,178.700 19.568 C 178.095 19.880,177.600 20.285,177.600 20.468 C 177.600 20.650,177.229 20.800,176.776 20.800 C 176.323 20.800,176.064 20.980,176.200 21.200 C 176.336 21.420,176.156 21.600,175.800 21.600 C 175.413 21.600,175.267 21.785,175.438 22.062 C 175.607 22.336,175.549 22.415,175.294 22.258 C 175.058 22.112,174.593 22.264,174.261 22.596 C 173.929 22.928,173.414 23.200,173.117 23.200 C 172.820 23.200,172.317 23.560,172.000 24.000 C 171.683 24.440,171.208 24.800,170.945 24.800 C 170.682 24.800,170.407 24.935,170.333 25.100 C 170.172 25.462,167.281 27.163,166.300 27.472 C 165.915 27.594,165.600 27.841,165.600 28.021 C 165.600 28.201,164.880 28.753,164.000 29.248 C 163.120 29.743,162.400 30.294,162.400 30.474 C 162.400 30.653,162.040 30.800,161.600 30.800 C 161.160 30.800,160.800 30.980,160.800 31.200 C 160.800 31.420,160.519 31.600,160.176 31.600 C 159.833 31.600,159.664 31.780,159.800 32.000 C 159.936 32.220,159.801 32.400,159.499 32.400 C 159.198 32.400,158.602 32.715,158.175 33.100 C 157.749 33.485,156.905 34.055,156.300 34.368 C 155.695 34.680,155.200 35.085,155.200 35.268 C 155.200 35.450,154.964 35.600,154.675 35.600 C 154.387 35.600,153.764 35.960,153.292 36.400 C 152.820 36.840,152.222 37.200,151.964 37.200 C 151.705 37.200,151.203 37.516,150.847 37.903 C 150.491 38.289,149.705 38.860,149.100 39.170 C 148.495 39.481,148.000 39.885,148.000 40.068 C 148.000 40.250,147.730 40.400,147.400 40.400 C 147.070 40.400,146.800 40.580,146.800 40.800 C 146.800 41.020,146.530 41.200,146.200 41.200 C 145.870 41.200,145.600 41.380,145.600 41.600 C 145.600 41.820,145.330 42.000,145.000 42.000 C 144.670 42.000,144.400 42.180,144.400 42.400 C 144.400 42.620,144.130 42.800,143.800 42.800 C 143.470 42.800,143.200 42.937,143.200 43.105 C 143.200 43.273,142.857 43.588,142.439 43.805 C 142.020 44.022,141.030 44.536,140.239 44.946 C 139.447 45.356,138.800 45.851,138.800 46.046 C 138.800 46.241,138.459 46.400,138.043 46.400 C 137.626 46.400,137.187 46.656,137.067 46.970 C 136.947 47.283,136.207 47.844,135.424 48.215 C 134.641 48.587,134.000 49.051,134.000 49.246 C 134.000 49.441,133.680 49.600,133.288 49.600 C 132.897 49.600,132.317 49.960,132.000 50.400 C 131.683 50.840,131.143 51.200,130.800 51.200 C 130.457 51.200,129.917 51.560,129.600 52.000 C 129.283 52.440,128.793 52.800,128.512 52.800 C 128.230 52.800,128.000 52.980,128.000 53.200 C 128.000 53.420,127.730 53.600,127.400 53.600 C 127.070 53.600,126.800 53.736,126.800 53.902 C 126.800 54.069,126.259 54.444,125.598 54.737 C 124.936 55.030,124.497 55.434,124.621 55.635 C 124.746 55.836,124.543 56.000,124.171 56.000 C 123.798 56.000,123.203 56.315,122.847 56.700 C 122.491 57.085,121.930 57.459,121.600 57.530 C 121.270 57.602,120.940 57.827,120.867 58.030 C 120.793 58.234,120.468 58.400,120.143 58.400 C 119.818 58.400,119.663 58.578,119.797 58.795 C 119.937 59.022,119.777 59.089,119.424 58.954 C 119.060 58.814,118.706 58.981,118.561 59.358 C 118.425 59.711,118.056 60.000,117.740 60.000 C 117.425 60.000,116.787 60.354,116.323 60.786 C 115.859 61.219,115.326 61.478,115.139 61.363 C 114.953 61.247,114.800 61.301,114.800 61.482 C 114.800 61.663,114.080 62.256,113.200 62.800 C 112.320 63.344,111.600 63.926,111.600 64.094 C 111.600 64.262,111.364 64.400,111.075 64.400 C 110.787 64.400,110.202 64.715,109.775 65.100 C 109.349 65.485,108.505 66.055,107.900 66.368 C 107.295 66.680,106.800 67.085,106.800 67.268 C 106.800 67.450,106.519 67.600,106.176 67.600 C 105.833 67.600,105.664 67.780,105.800 68.000 C 105.936 68.220,105.677 68.400,105.224 68.400 C 104.771 68.400,104.400 68.580,104.400 68.800 C 104.400 69.020,104.106 69.200,103.747 69.200 C 103.388 69.200,102.803 69.516,102.447 69.903 C 102.091 70.289,101.305 70.860,100.700 71.170 C 100.095 71.481,99.600 71.885,99.600 72.068 C 99.600 72.250,99.424 72.400,99.208 72.400 C 98.993 72.400,97.868 73.119,96.708 73.998 C 95.549 74.877,94.285 75.597,93.900 75.598 C 93.515 75.599,93.200 75.783,93.200 76.006 C 93.200 76.230,92.570 76.713,91.800 77.081 C 91.030 77.448,90.400 77.873,90.400 78.026 C 90.400 78.178,89.860 78.527,89.200 78.800 C 88.540 79.073,88.000 79.455,88.000 79.649 C 88.000 79.842,87.764 80.000,87.475 80.000 C 87.187 80.000,86.602 80.324,86.175 80.720 C 85.749 81.116,85.055 81.572,84.633 81.733 C 81.432 82.956,84.547 83.000,180.120 83.076 C 273.115 83.151,283.360 83.278,288.600 84.422 C 292.547 85.283,294.000 85.342,294.000 84.640 C 294.000 84.288,293.820 84.000,293.600 84.000 C 293.380 84.000,293.200 83.460,293.200 82.800 C 293.200 82.140,293.020 81.600,292.800 81.600 C 292.580 81.600,292.400 81.060,292.400 80.400 C 292.400 79.740,292.220 79.200,292.000 79.200 C 291.780 79.200,291.600 78.841,291.600 78.402 C 291.600 77.670,290.464 74.025,289.481 71.600 C 289.257 71.050,289.002 70.150,288.913 69.600 C 288.824 69.050,288.582 68.540,288.375 68.467 C 288.169 68.393,288.000 67.808,288.000 67.167 C 288.000 66.525,287.820 66.000,287.600 66.000 C 287.380 66.000,287.200 65.661,287.200 65.246 C 287.200 64.831,286.939 63.989,286.620 63.374 C 286.302 62.760,286.132 62.109,286.244 61.929 C 286.356 61.748,286.257 61.600,286.024 61.600 C 285.791 61.600,285.600 61.161,285.600 60.624 C 285.600 60.087,285.420 59.536,285.200 59.400 C 284.980 59.264,284.800 58.803,284.800 58.376 C 284.800 57.949,284.620 57.600,284.400 57.600 C 284.180 57.600,284.000 57.319,284.000 56.977 C 284.000 56.283,235.448 7.600,234.757 7.600 C 234.517 7.600,233.817 7.060,233.200 6.400 C 232.583 5.740,231.831 5.200,231.528 5.200 C 231.225 5.200,230.717 4.840,230.400 4.400 C 230.083 3.960,229.503 3.600,229.112 3.600 C 228.720 3.600,228.400 3.420,228.400 3.200 C 228.400 2.980,228.040 2.800,227.600 2.800 C 227.160 2.800,226.800 2.620,226.800 2.400 C 226.800 2.180,226.440 2.000,226.000 2.000 C 225.560 2.000,225.200 1.820,225.200 1.600 C 225.200 1.380,224.786 1.200,224.280 1.200 C 223.774 1.200,223.135 0.975,222.860 0.700 C 222.358 0.198,210.365 -0.149,207.900 0.267 M84.412 177.100 C 84.424 273.231,84.533 280.752,86.022 287.800 C 86.254 288.900,86.540 290.347,86.656 291.015 C 86.850 292.125,87.096 292.293,89.534 292.976 C 91.000 293.386,92.380 293.841,92.600 293.987 C 92.820 294.132,94.350 294.678,96.000 295.200 C 97.650 295.722,99.180 296.263,99.400 296.402 C 99.620 296.542,100.610 296.900,101.600 297.198 C 102.590 297.495,103.571 297.888,103.780 298.070 C 103.989 298.251,104.544 298.400,105.013 298.400 C 105.483 298.400,105.984 298.518,106.128 298.662 C 106.369 298.902,109.648 300.105,115.200 301.990 C 116.410 302.401,118.930 303.306,120.800 304.000 C 122.670 304.695,125.460 305.684,127.000 306.198 C 129.278 306.958,138.368 310.144,141.800 311.386 C 142.240 311.545,143.140 311.856,143.800 312.078 C 144.460 312.299,145.360 312.631,145.800 312.814 C 146.240 312.997,147.770 313.531,149.200 314.000 C 150.630 314.469,152.160 315.009,152.600 315.200 C 153.040 315.391,154.570 315.931,156.000 316.400 C 158.566 317.241,159.234 317.487,161.200 318.313 C 161.750 318.544,162.560 318.823,163.000 318.933 C 163.440 319.042,165.870 319.879,168.400 320.792 C 170.930 321.706,173.720 322.693,174.600 322.986 C 175.480 323.280,178.810 324.432,182.000 325.547 C 185.190 326.662,189.287 328.093,191.105 328.726 C 192.923 329.359,194.528 329.994,194.672 330.138 C 194.816 330.282,195.317 330.400,195.787 330.400 C 196.256 330.400,196.811 330.549,197.020 330.730 C 197.229 330.912,198.210 331.305,199.200 331.602 C 200.190 331.900,201.180 332.259,201.400 332.400 C 201.620 332.541,202.610 332.900,203.600 333.198 C 204.590 333.495,205.571 333.888,205.780 334.070 C 205.989 334.251,206.486 334.400,206.885 334.400 C 207.284 334.400,207.923 334.574,208.305 334.787 C 208.687 335.000,209.810 335.439,210.800 335.761 C 211.790 336.083,214.130 336.913,216.000 337.605 C 217.870 338.298,220.660 339.281,222.200 339.791 C 228.835 341.989,235.852 344.453,236.495 344.812 C 236.877 345.025,237.516 345.200,237.915 345.200 C 238.314 345.200,238.811 345.343,239.020 345.518 C 239.229 345.693,240.120 346.065,241.000 346.345 C 241.880 346.624,242.960 347.009,243.400 347.200 C 243.840 347.391,245.370 347.931,246.800 348.400 C 248.230 348.869,249.760 349.403,250.200 349.586 C 250.640 349.769,251.630 350.136,252.400 350.400 C 253.170 350.664,254.160 351.033,254.600 351.218 C 255.040 351.404,258.010 352.449,261.200 353.541 C 264.390 354.633,269.610 356.452,272.800 357.584 C 275.990 358.715,279.950 360.089,281.600 360.637 C 283.250 361.185,284.960 361.794,285.400 361.990 C 285.840 362.187,286.920 362.576,287.800 362.855 C 288.680 363.135,289.571 363.507,289.780 363.682 C 290.733 364.480,292.701 363.994,297.400 361.798 C 298.500 361.284,300.840 360.240,302.600 359.478 C 308.154 357.074,316.933 353.208,318.700 352.388 C 320.774 351.426,323.327 350.286,325.200 349.484 C 325.970 349.154,327.455 348.505,328.500 348.042 C 329.545 347.579,331.255 346.823,332.300 346.362 C 333.345 345.901,335.100 345.110,336.200 344.603 C 337.300 344.096,339.149 343.269,340.308 342.765 C 341.468 342.262,342.360 341.680,342.291 341.473 C 342.172 341.115,84.752 83.600,84.514 83.600 C 84.451 83.600,84.405 125.675,84.412 177.100 " stroke="none" fill="#04d3bb" fill-rule="evenodd"></path><path id="path2" d="M293.811 85.183 C 293.598 85.527,294.896 89.539,299.383 102.400 C 300.189 104.710,301.006 106.960,301.198 107.400 C 301.390 107.840,301.931 109.370,302.400 110.800 C 302.869 112.230,303.409 113.760,303.600 114.200 C 303.791 114.640,304.331 116.170,304.800 117.600 C 305.269 119.030,305.812 120.560,306.007 121.000 C 306.201 121.440,307.163 124.140,308.145 127.000 C 309.126 129.860,310.949 135.080,312.196 138.600 C 313.443 142.120,314.796 145.990,315.202 147.200 C 316.233 150.276,317.993 155.245,318.388 156.200 C 318.570 156.640,318.936 157.630,319.200 158.400 C 319.464 159.170,319.835 160.160,320.024 160.600 C 320.212 161.040,320.815 162.750,321.363 164.400 C 321.912 166.050,323.099 169.470,324.001 172.000 C 326.414 178.764,328.808 185.577,329.414 187.400 C 329.706 188.280,330.691 191.070,331.603 193.600 C 332.515 196.130,333.526 199.010,333.851 200.000 C 334.175 200.990,334.599 202.160,334.794 202.600 C 334.988 203.040,335.531 204.570,336.000 206.000 C 336.469 207.430,337.013 208.960,337.209 209.400 C 337.406 209.840,338.015 211.550,338.563 213.200 C 339.112 214.850,340.301 218.270,341.207 220.800 C 342.112 223.330,343.091 226.120,343.383 227.000 C 343.674 227.880,344.845 231.210,345.984 234.400 C 347.124 237.590,348.320 241.010,348.641 242.000 C 348.962 242.990,349.400 244.113,349.613 244.495 C 349.826 244.877,350.000 245.516,350.000 245.915 C 350.000 246.314,350.143 246.811,350.318 247.020 C 350.493 247.229,350.865 248.120,351.145 249.000 C 351.424 249.880,351.809 250.960,352.000 251.400 C 352.191 251.840,352.731 253.370,353.200 254.800 C 353.669 256.230,354.203 257.760,354.386 258.200 C 354.569 258.640,354.936 259.630,355.200 260.400 C 355.464 261.170,355.835 262.160,356.024 262.600 C 356.212 263.040,356.816 264.750,357.366 266.400 C 358.438 269.616,361.895 279.516,364.001 285.400 C 365.728 290.226,365.788 290.592,365.089 292.098 C 364.214 293.982,363.270 296.105,359.616 304.400 C 357.824 308.470,355.936 312.700,355.422 313.800 C 354.907 314.900,354.218 316.430,353.890 317.200 C 352.667 320.076,351.889 321.856,351.004 323.800 C 349.627 326.825,348.534 329.274,345.914 335.200 C 344.601 338.170,343.373 340.786,343.186 341.013 C 342.995 341.245,343.025 341.685,343.253 342.013 C 343.562 342.458,343.710 342.479,343.864 342.100 C 343.975 341.825,344.481 341.600,344.987 341.600 C 345.985 341.600,349.770 340.551,350.895 339.963 C 351.277 339.763,352.031 339.600,352.571 339.600 C 353.111 339.600,353.664 339.420,353.800 339.200 C 353.936 338.980,354.476 338.800,355.000 338.800 C 355.524 338.800,356.064 338.620,356.200 338.400 C 356.336 338.180,356.977 338.000,357.624 338.000 C 358.271 338.000,358.800 337.820,358.800 337.600 C 358.800 337.380,359.239 337.200,359.776 337.200 C 360.313 337.200,360.864 337.020,361.000 336.800 C 361.136 336.580,361.777 336.400,362.424 336.400 C 363.071 336.400,363.600 336.220,363.600 336.000 C 363.600 335.780,364.140 335.600,364.800 335.600 C 365.460 335.600,366.000 335.420,366.000 335.200 C 366.000 334.980,366.540 334.800,367.200 334.800 C 367.860 334.800,368.400 334.620,368.400 334.400 C 368.400 334.180,368.839 334.000,369.376 334.000 C 369.913 334.000,370.464 333.820,370.600 333.600 C 370.736 333.380,371.366 333.200,372.000 333.200 C 372.634 333.200,373.264 333.020,373.400 332.800 C 373.536 332.580,374.177 332.400,374.824 332.400 C 375.471 332.400,376.000 332.220,376.000 332.000 C 376.000 331.780,376.439 331.600,376.976 331.600 C 377.513 331.600,378.064 331.420,378.200 331.200 C 378.336 330.980,378.977 330.800,379.624 330.800 C 380.271 330.800,380.800 330.620,380.800 330.400 C 380.800 330.180,381.340 330.000,382.000 330.000 C 382.660 330.000,383.200 329.820,383.200 329.600 C 383.200 329.380,383.841 329.200,384.624 329.200 C 385.471 329.200,385.947 329.038,385.800 328.800 C 385.656 328.567,386.063 328.400,386.776 328.400 C 387.449 328.400,388.000 328.220,388.000 328.000 C 388.000 327.780,388.439 327.600,388.976 327.600 C 389.513 327.600,390.064 327.420,390.200 327.200 C 390.336 326.980,391.067 326.800,391.824 326.800 C 392.581 326.800,393.200 326.620,393.200 326.400 C 393.200 326.180,393.740 326.000,394.400 326.000 C 395.060 326.000,395.600 325.820,395.600 325.600 C 395.600 325.380,396.100 325.200,396.711 325.200 C 397.322 325.200,398.222 324.920,398.711 324.577 L 399.600 323.955 399.600 247.570 L 399.600 171.184 394.221 165.892 C 391.262 162.981,388.517 160.305,388.121 159.945 C 387.724 159.585,384.757 156.588,381.526 153.286 C 378.295 149.984,375.550 147.383,375.426 147.508 C 375.302 147.632,375.200 147.538,375.200 147.299 C 375.200 146.730,332.138 103.600,331.571 103.600 C 331.332 103.600,330.446 102.880,329.600 102.000 C 328.754 101.120,327.794 100.400,327.465 100.400 C 327.136 100.400,326.807 100.255,326.733 100.077 C 326.541 99.609,322.935 97.200,322.428 97.200 C 322.193 97.200,322.000 97.020,322.000 96.800 C 322.000 96.580,321.838 96.400,321.641 96.400 C 321.443 96.400,320.087 95.674,318.627 94.787 C 317.167 93.900,315.439 93.068,314.786 92.937 C 314.134 92.807,313.600 92.543,313.600 92.350 C 313.600 92.158,313.240 92.000,312.800 92.000 C 312.360 92.000,312.000 91.820,312.000 91.600 C 312.000 91.380,311.640 91.200,311.200 91.200 C 310.760 91.200,310.400 91.020,310.400 90.800 C 310.400 90.580,310.040 90.400,309.600 90.400 C 309.160 90.400,308.800 90.220,308.800 90.000 C 308.800 89.780,308.339 89.600,307.776 89.600 C 307.213 89.600,306.840 89.458,306.948 89.285 C 307.055 89.112,306.660 88.930,306.071 88.881 C 305.482 88.833,304.940 88.615,304.867 88.397 C 304.793 88.178,304.298 88.000,303.767 88.000 C 303.235 88.000,302.800 87.820,302.800 87.600 C 302.800 87.380,302.260 87.200,301.600 87.200 C 300.940 87.200,300.400 87.020,300.400 86.800 C 300.400 86.580,299.860 86.400,299.200 86.400 C 298.540 86.400,298.000 86.220,298.000 86.000 C 298.000 85.780,297.460 85.600,296.800 85.600 C 296.140 85.600,295.600 85.420,295.600 85.200 C 295.600 84.689,294.124 84.675,293.811 85.183 M84.493 273.600 C 84.493 274.370,84.575 274.685,84.676 274.300 C 84.776 273.915,84.776 273.285,84.676 272.900 C 84.575 272.515,84.493 272.830,84.493 273.600 M84.893 280.000 C 84.893 280.770,84.975 281.085,85.076 280.700 C 85.176 280.315,85.176 279.685,85.076 279.300 C 84.975 278.915,84.893 279.230,84.893 280.000 " stroke="none" fill="#04a4e3" fill-rule="evenodd"></path><path id="path3" d="M83.200 82.753 C 83.200 82.999,83.204 83.294,83.209 83.409 C 83.214 83.524,82.778 84.058,82.240 84.596 C 81.702 85.134,81.146 85.940,81.004 86.387 C 80.862 86.834,80.600 87.200,80.422 87.200 C 80.243 87.200,79.873 87.740,79.600 88.400 C 79.327 89.060,78.990 89.602,78.851 89.605 C 78.713 89.607,78.269 90.299,77.866 91.143 C 77.462 91.987,76.700 93.178,76.174 93.791 C 75.648 94.403,75.310 95.055,75.424 95.239 C 75.538 95.423,75.264 95.803,74.816 96.083 C 74.367 96.363,74.000 96.869,74.000 97.208 C 74.000 97.546,73.640 98.083,73.200 98.400 C 72.760 98.717,72.400 99.257,72.400 99.600 C 72.400 99.943,72.040 100.483,71.600 100.800 C 71.160 101.117,70.800 101.657,70.800 102.000 C 70.800 102.343,70.440 102.883,70.000 103.200 C 69.560 103.517,69.200 104.057,69.200 104.400 C 69.200 104.743,68.840 105.283,68.400 105.600 C 67.960 105.917,67.600 106.497,67.600 106.888 C 67.600 107.280,67.420 107.600,67.200 107.600 C 66.980 107.600,66.797 108.005,66.794 108.500 C 66.789 109.228,66.714 109.285,66.400 108.800 C 66.069 108.287,66.011 108.302,66.006 108.900 C 66.003 109.285,65.841 109.600,65.646 109.600 C 65.451 109.600,65.004 110.205,64.653 110.945 C 64.302 111.685,63.741 112.517,63.407 112.794 C 63.073 113.071,62.800 113.546,62.800 113.849 C 62.800 114.152,62.609 114.400,62.376 114.400 C 62.143 114.400,62.044 114.547,62.155 114.727 C 62.266 114.907,61.917 115.529,61.379 116.110 C 60.840 116.690,60.400 117.353,60.400 117.583 C 60.400 117.812,60.220 118.000,60.000 118.000 C 59.780 118.000,59.600 118.248,59.600 118.551 C 59.600 118.854,59.330 119.326,59.000 119.600 C 58.670 119.874,58.400 120.396,58.400 120.761 C 58.400 121.125,58.040 121.683,57.600 122.000 C 57.160 122.317,56.800 122.857,56.800 123.200 C 56.800 123.543,56.440 124.083,56.000 124.400 C 55.560 124.717,55.200 125.207,55.200 125.488 C 55.200 125.770,55.020 126.000,54.800 126.000 C 54.580 126.000,54.400 126.270,54.400 126.600 C 54.400 126.930,54.220 127.200,54.000 127.200 C 53.780 127.200,53.600 127.470,53.600 127.800 C 53.600 128.130,53.420 128.400,53.200 128.400 C 52.980 128.400,52.800 128.670,52.800 129.000 C 52.800 129.330,52.620 129.600,52.400 129.600 C 52.180 129.600,52.000 129.870,52.000 130.200 C 52.000 130.530,51.850 130.800,51.668 130.800 C 51.485 130.800,51.080 131.295,50.768 131.900 C 50.456 132.505,50.080 133.092,49.933 133.204 C 49.785 133.316,49.605 133.676,49.532 134.004 C 49.459 134.332,49.096 134.881,48.725 135.225 C 48.354 135.569,47.994 136.109,47.925 136.425 C 47.856 136.741,47.496 137.281,47.125 137.625 C 46.754 137.969,46.394 138.509,46.325 138.825 C 46.256 139.141,45.930 139.673,45.600 140.006 C 44.906 140.706,44.290 141.670,43.365 143.500 C 43.004 144.215,42.549 144.800,42.354 144.800 C 42.159 144.800,42.000 145.025,42.000 145.300 C 41.999 145.575,41.554 146.317,41.011 146.949 C 40.467 147.581,39.916 148.436,39.784 148.849 C 39.653 149.262,39.378 149.600,39.173 149.600 C 38.968 149.600,38.800 149.920,38.800 150.312 C 38.800 150.703,38.440 151.283,38.000 151.600 C 37.560 151.917,37.200 152.457,37.200 152.800 C 37.200 153.143,36.840 153.683,36.400 154.000 C 35.960 154.317,35.600 154.857,35.600 155.200 C 35.600 155.543,35.240 156.083,34.800 156.400 C 34.360 156.717,34.000 157.257,34.000 157.600 C 34.000 157.943,33.640 158.483,33.200 158.800 C 32.760 159.117,32.400 159.524,32.400 159.705 C 32.400 159.886,32.040 160.420,31.600 160.892 C 31.160 161.364,30.800 161.987,30.800 162.275 C 30.800 162.564,30.620 162.800,30.400 162.800 C 30.180 162.800,30.000 163.081,30.000 163.424 C 30.000 163.767,29.820 163.936,29.600 163.800 C 29.380 163.664,29.200 163.923,29.200 164.376 C 29.200 164.829,29.042 165.200,28.849 165.200 C 28.655 165.200,28.273 165.740,28.000 166.400 C 27.727 167.060,27.345 167.600,27.151 167.600 C 26.958 167.600,26.800 167.870,26.800 168.200 C 26.800 168.530,26.609 168.800,26.376 168.800 C 26.143 168.800,26.047 168.953,26.163 169.139 C 26.278 169.326,26.019 169.859,25.586 170.323 C 25.154 170.787,24.800 171.404,24.800 171.695 C 24.800 171.986,24.440 172.483,24.000 172.800 C 23.560 173.117,23.200 173.605,23.200 173.884 C 23.200 174.333,22.723 175.039,21.400 176.545 C 21.180 176.795,20.745 177.495,20.432 178.100 C 20.120 178.705,19.715 179.200,19.532 179.200 C 19.350 179.200,19.200 179.470,19.200 179.800 C 19.200 180.130,19.020 180.400,18.800 180.400 C 18.580 180.400,18.400 180.630,18.400 180.912 C 18.400 181.193,18.040 181.683,17.600 182.000 C 17.160 182.317,16.800 182.857,16.800 183.200 C 16.800 183.543,16.440 184.083,16.000 184.400 C 15.560 184.717,15.200 185.257,15.200 185.600 C 15.200 185.943,14.850 186.476,14.421 186.785 C 13.993 187.093,13.719 187.470,13.813 187.621 C 13.907 187.773,13.632 188.301,13.204 188.796 C 12.775 189.290,12.316 190.034,12.185 190.448 C 12.054 190.861,11.799 191.200,11.620 191.200 C 11.440 191.200,10.825 192.190,10.252 193.400 C 9.679 194.610,9.028 195.600,8.805 195.600 C 8.582 195.600,8.400 195.878,8.400 196.218 C 8.400 196.558,7.964 197.272,7.431 197.805 C 6.898 198.338,6.346 199.140,6.204 199.587 C 6.062 200.034,5.778 200.400,5.573 200.400 C 5.368 200.400,5.200 200.636,5.200 200.925 C 5.200 201.213,4.840 201.836,4.400 202.308 C 3.960 202.780,3.600 203.404,3.600 203.695 C 3.600 203.986,3.240 204.483,2.800 204.800 C 2.360 205.117,2.000 205.697,2.000 206.088 C 2.000 206.480,1.820 206.800,1.600 206.800 C 1.380 206.800,1.200 207.419,1.200 208.176 C 1.200 208.933,1.020 209.664,0.800 209.800 C 0.580 209.936,0.400 211.567,0.400 213.424 C 0.400 215.408,0.565 216.800,0.800 216.800 C 1.020 216.800,1.200 217.610,1.200 218.600 C 1.200 219.590,1.380 220.400,1.600 220.400 C 1.820 220.400,2.000 220.951,2.000 221.624 C 2.000 222.337,2.167 222.744,2.400 222.600 C 2.620 222.464,2.800 222.688,2.800 223.097 C 2.800 224.009,3.689 225.993,4.100 225.997 C 4.265 225.999,4.400 226.320,4.400 226.712 C 4.400 227.103,4.760 227.683,5.200 228.000 C 5.640 228.317,6.000 228.857,6.000 229.200 C 6.000 229.543,6.360 230.083,6.800 230.400 C 7.240 230.717,7.600 231.225,7.600 231.528 C 7.600 231.831,8.134 232.578,8.786 233.187 C 9.438 233.796,9.876 234.390,9.759 234.507 C 9.643 234.624,10.279 235.308,11.173 236.027 C 12.068 236.746,12.800 237.488,12.800 237.677 C 12.800 238.134,18.008 243.200,18.478 243.200 C 18.681 243.200,18.777 243.335,18.691 243.500 C 18.605 243.665,20.836 246.077,23.648 248.860 C 26.460 251.642,28.845 253.712,28.949 253.460 C 29.052 253.207,29.151 253.352,29.168 253.782 C 29.187 254.242,32.174 257.497,36.417 261.682 C 40.386 265.597,43.515 268.800,43.370 268.800 C 43.225 268.800,44.589 270.195,46.401 271.900 C 48.213 273.605,51.562 276.845,53.843 279.100 C 56.889 282.111,58.258 283.200,58.995 283.200 C 59.548 283.200,60.000 283.380,60.000 283.600 C 60.000 283.820,60.439 284.000,60.976 284.000 C 61.513 284.000,62.064 284.180,62.200 284.400 C 62.336 284.620,62.887 284.800,63.424 284.800 C 63.961 284.800,64.400 284.980,64.400 285.200 C 64.400 285.420,64.940 285.600,65.600 285.600 C 66.260 285.600,66.800 285.780,66.800 286.000 C 66.800 286.220,67.160 286.400,67.600 286.400 C 68.040 286.400,68.400 286.580,68.400 286.800 C 68.400 287.020,68.940 287.200,69.600 287.200 C 70.260 287.200,70.800 287.380,70.800 287.600 C 70.800 287.820,71.340 288.000,72.000 288.000 C 72.660 288.000,73.200 288.180,73.200 288.400 C 73.200 288.620,73.652 288.800,74.205 288.800 C 74.758 288.800,75.523 288.959,75.905 289.153 C 77.370 289.898,78.683 290.380,81.000 291.022 C 82.320 291.388,83.713 291.847,84.095 292.043 C 86.522 293.289,86.945 292.424,86.022 288.105 C 84.482 280.895,84.400 275.346,84.400 177.968 C 84.400 126.066,84.451 83.600,84.514 83.600 C 84.577 83.600,142.672 141.639,213.614 212.576 C 312.879 311.833,342.708 341.442,343.070 341.076 C 343.329 340.814,344.612 338.170,345.921 335.200 C 348.465 329.430,349.555 326.983,351.004 323.800 C 351.889 321.856,352.667 320.076,353.890 317.200 C 354.218 316.430,354.907 314.900,355.422 313.800 C 355.936 312.700,357.824 308.470,359.616 304.400 C 363.270 296.105,364.214 293.982,365.089 292.098 C 365.788 290.592,365.728 290.226,364.001 285.400 C 361.895 279.516,358.438 269.616,357.366 266.400 C 356.816 264.750,356.212 263.040,356.024 262.600 C 355.835 262.160,355.464 261.170,355.200 260.400 C 354.936 259.630,354.569 258.640,354.386 258.200 C 354.203 257.760,353.669 256.230,353.200 254.800 C 352.731 253.370,352.191 251.840,352.000 251.400 C 351.809 250.960,351.424 249.880,351.145 249.000 C 350.865 248.120,350.493 247.229,350.318 247.020 C 350.143 246.811,350.000 246.314,350.000 245.915 C 350.000 245.516,349.826 244.877,349.613 244.495 C 349.400 244.113,348.962 242.990,348.641 242.000 C 348.320 241.010,347.124 237.590,345.984 234.400 C 344.845 231.210,343.674 227.880,343.383 227.000 C 343.091 226.120,342.112 223.330,341.207 220.800 C 340.301 218.270,339.112 214.850,338.563 213.200 C 338.015 211.550,337.406 209.840,337.209 209.400 C 337.013 208.960,336.469 207.430,336.000 206.000 C 335.531 204.570,334.988 203.040,334.794 202.600 C 334.599 202.160,334.175 200.990,333.851 200.000 C 333.526 199.010,332.515 196.130,331.603 193.600 C 330.691 191.070,329.706 188.280,329.414 187.400 C 328.808 185.577,326.414 178.764,324.001 172.000 C 323.099 169.470,321.912 166.050,321.363 164.400 C 320.815 162.750,320.212 161.040,320.024 160.600 C 319.835 160.160,319.464 159.170,319.200 158.400 C 318.936 157.630,318.570 156.640,318.388 156.200 C 317.993 155.245,316.233 150.276,315.202 147.200 C 314.796 145.990,313.443 142.120,312.196 138.600 C 310.949 135.080,309.126 129.860,308.145 127.000 C 307.163 124.140,306.201 121.440,306.007 121.000 C 305.812 120.560,305.269 119.030,304.800 117.600 C 304.331 116.170,303.791 114.640,303.600 114.200 C 303.409 113.760,302.869 112.230,302.400 110.800 C 301.931 109.370,301.390 107.840,301.198 107.400 C 300.798 106.484,298.895 101.064,295.701 91.737 L 293.487 85.273 292.044 85.063 C 291.250 84.947,289.700 84.657,288.600 84.418 C 283.340 83.279,273.040 83.151,180.200 83.071 C 127.840 83.026,84.595 82.836,84.100 82.648 C 83.500 82.421,83.200 82.456,83.200 82.753 M356.800 128.600 C 357.546 129.370,358.247 130.000,358.357 130.000 C 358.467 130.000,357.946 129.370,357.200 128.600 C 356.454 127.830,355.753 127.200,355.643 127.200 C 355.533 127.200,356.054 127.830,356.800 128.600 " stroke="none" fill="#047db7" fill-rule="evenodd"></path><path id="path4" d="M90.174 293.557 C 90.324 293.801,90.857 294.000,91.357 294.000 C 91.857 294.000,92.384 294.118,92.528 294.262 C 92.764 294.497,96.343 295.808,101.200 297.437 C 102.190 297.769,103.360 298.204,103.800 298.405 C 105.358 299.115,112.921 301.612,113.068 301.465 C 113.219 301.314,111.162 300.506,108.200 299.552 C 107.320 299.269,106.429 298.893,106.220 298.718 C 106.011 298.543,105.462 298.400,105.000 298.400 C 104.538 298.400,103.989 298.257,103.780 298.082 C 103.571 297.907,102.680 297.535,101.800 297.255 C 100.920 296.976,99.840 296.591,99.400 296.400 C 98.960 296.209,97.430 295.669,96.000 295.200 C 94.570 294.731,93.040 294.191,92.600 293.999 C 90.994 293.299,89.890 293.098,90.174 293.557 M114.000 302.000 C 114.330 302.213,114.870 302.388,115.200 302.388 C 115.733 302.388,115.733 302.345,115.200 302.000 C 114.870 301.787,114.330 301.612,114.000 301.612 C 113.467 301.612,113.467 301.655,114.000 302.000 M116.400 302.800 C 116.730 303.013,117.270 303.188,117.600 303.188 C 118.133 303.188,118.133 303.145,117.600 302.800 C 117.270 302.587,116.730 302.412,116.400 302.412 C 115.867 302.412,115.867 302.455,116.400 302.800 M120.800 304.400 C 121.130 304.613,121.670 304.788,122.000 304.788 C 122.533 304.788,122.533 304.745,122.000 304.400 C 121.670 304.187,121.130 304.012,120.800 304.012 C 120.267 304.012,120.267 304.055,120.800 304.400 M125.200 306.000 C 125.530 306.213,126.070 306.388,126.400 306.388 C 126.933 306.388,126.933 306.345,126.400 306.000 C 126.070 305.787,125.530 305.612,125.200 305.612 C 124.667 305.612,124.667 305.655,125.200 306.000 M127.600 306.800 C 127.930 307.013,128.560 307.178,129.000 307.166 L 129.800 307.144 129.000 306.800 C 127.804 306.286,126.805 306.286,127.600 306.800 M134.553 309.086 C 134.883 309.417,137.665 310.394,138.200 310.369 C 138.665 310.346,137.119 309.675,135.446 309.172 C 134.811 308.981,134.409 308.942,134.553 309.086 M139.200 310.745 C 139.530 310.940,140.970 311.495,142.400 311.976 C 143.830 312.458,145.360 313.008,145.800 313.198 C 147.810 314.065,152.553 315.580,152.724 315.409 C 152.829 315.304,152.664 315.138,152.357 315.038 C 148.835 313.897,146.458 313.086,145.800 312.800 C 145.360 312.609,144.280 312.223,143.400 311.943 C 142.520 311.663,141.620 311.316,141.400 311.172 C 141.180 311.028,140.460 310.793,139.800 310.650 C 139.022 310.481,138.811 310.514,139.200 310.745 M153.233 315.746 C 153.425 315.914,158.858 317.903,160.508 318.409 C 161.184 318.616,161.525 318.603,161.384 318.374 C 161.257 318.168,160.833 318.000,160.443 318.000 C 160.053 318.000,159.611 317.878,159.462 317.729 C 159.313 317.580,157.978 317.045,156.496 316.539 C 153.972 315.679,152.844 315.405,153.233 315.746 M162.600 319.200 C 163.796 319.714,164.795 319.714,164.000 319.200 C 163.670 318.987,163.040 318.822,162.600 318.834 L 161.800 318.856 162.600 319.200 M169.600 321.600 C 169.930 321.813,170.470 321.988,170.800 321.988 C 171.333 321.988,171.333 321.945,170.800 321.600 C 170.470 321.387,169.930 321.212,169.600 321.212 C 169.067 321.212,169.067 321.255,169.600 321.600 M174.200 323.200 C 174.336 323.420,174.842 323.587,175.324 323.572 C 176.169 323.545,176.171 323.531,175.400 323.200 C 174.299 322.727,173.908 322.727,174.200 323.200 M181.000 325.600 C 181.136 325.820,181.642 325.987,182.124 325.972 C 182.969 325.945,182.971 325.931,182.200 325.600 C 181.099 325.127,180.708 325.127,181.000 325.600 M183.427 326.325 C 183.632 326.497,184.520 326.865,185.400 327.145 C 186.280 327.424,187.360 327.809,187.800 328.000 C 188.240 328.191,189.770 328.731,191.200 329.200 C 192.630 329.669,194.160 330.203,194.600 330.386 C 195.040 330.569,196.030 330.936,196.800 331.200 C 197.570 331.464,198.560 331.830,199.000 332.012 C 200.194 332.506,205.704 334.400,205.948 334.400 C 206.589 334.400,205.154 333.665,203.600 333.198 C 202.610 332.900,201.620 332.541,201.400 332.400 C 201.180 332.259,200.190 331.900,199.200 331.602 C 198.210 331.305,197.229 330.912,197.020 330.730 C 196.811 330.549,196.314 330.400,195.915 330.400 C 195.516 330.400,194.877 330.226,194.495 330.013 C 194.113 329.800,192.990 329.359,192.000 329.034 C 191.010 328.710,189.120 328.052,187.800 327.574 C 184.572 326.404,182.975 325.948,183.427 326.325 M207.000 334.800 C 208.101 335.273,208.492 335.273,208.200 334.800 C 208.064 334.580,207.558 334.413,207.076 334.428 C 206.231 334.455,206.229 334.469,207.000 334.800 M222.800 340.400 C 223.130 340.613,223.760 340.778,224.200 340.766 L 225.000 340.744 224.200 340.400 C 223.004 339.886,222.005 339.886,222.800 340.400 M340.400 342.672 C 337.182 344.170,334.453 345.413,332.300 346.362 C 331.255 346.823,329.545 347.579,328.500 348.042 C 325.467 349.387,324.252 349.897,323.443 350.167 C 323.026 350.305,322.784 350.517,322.904 350.637 C 323.024 350.757,323.995 350.462,325.061 349.982 C 327.150 349.041,329.292 348.089,332.300 346.762 C 333.345 346.301,335.100 345.513,336.200 345.009 C 340.887 342.864,342.024 342.400,342.596 342.400 C 342.928 342.400,343.200 342.220,343.200 342.000 C 343.200 341.439,342.892 341.512,340.400 342.672 M229.820 342.722 C 230.029 342.899,231.460 343.448,233.000 343.943 C 234.540 344.437,236.160 345.003,236.600 345.200 C 237.040 345.398,238.210 345.829,239.200 346.159 C 240.190 346.488,243.058 347.485,245.573 348.373 C 248.088 349.261,250.229 349.904,250.330 349.803 C 250.432 349.702,250.264 349.538,249.957 349.438 C 246.435 348.297,244.058 347.486,243.400 347.200 C 242.960 347.009,241.880 346.624,241.000 346.345 C 240.120 346.065,239.229 345.693,239.020 345.518 C 238.811 345.343,238.256 345.200,237.787 345.200 C 237.317 345.200,236.816 345.082,236.672 344.938 C 236.437 344.703,230.057 342.409,229.620 342.403 C 229.521 342.401,229.611 342.545,229.820 342.722 M251.200 350.286 C 251.530 350.408,252.160 350.674,252.600 350.876 C 253.387 351.238,253.388 351.234,252.624 350.622 C 252.196 350.280,251.566 350.014,251.224 350.032 C 250.685 350.059,250.682 350.093,251.200 350.286 M253.791 351.185 C 254.066 351.630,256.863 352.470,257.141 352.192 C 257.244 352.089,256.755 351.891,256.056 351.751 C 255.356 351.611,254.686 351.340,254.568 351.148 C 254.450 350.957,254.173 350.800,253.953 350.800 C 253.733 350.800,253.660 350.973,253.791 351.185 M317.600 352.861 C 316.390 353.504,315.850 353.910,316.400 353.764 C 317.775 353.397,321.142 351.631,320.400 351.665 C 320.070 351.680,318.810 352.219,317.600 352.861 M257.600 352.568 C 257.600 352.840,261.634 354.099,261.841 353.892 C 261.946 353.788,261.135 353.409,260.040 353.051 C 257.939 352.364,257.600 352.297,257.600 352.568 M313.200 354.800 C 312.430 355.222,311.913 355.574,312.051 355.583 C 312.465 355.611,315.200 354.405,315.200 354.195 C 315.200 353.846,314.625 354.020,313.200 354.800 M269.400 356.800 C 269.536 357.020,270.042 357.187,270.524 357.172 C 271.369 357.145,271.371 357.131,270.600 356.800 C 269.499 356.327,269.108 356.327,269.400 356.800 M307.800 357.178 C 306.920 357.595,306.397 357.950,306.639 357.968 C 307.128 358.004,309.600 356.838,309.600 356.571 C 309.600 356.330,309.576 356.338,307.800 357.178 M273.600 358.146 C 273.600 358.333,277.389 359.608,277.875 359.584 C 278.346 359.562,275.992 358.578,274.700 358.257 C 274.095 358.107,273.600 358.057,273.600 358.146 M278.627 359.925 C 278.832 360.097,279.720 360.465,280.600 360.745 C 281.480 361.024,282.560 361.412,283.000 361.606 C 283.830 361.973,286.935 363.028,288.973 363.636 C 290.728 364.160,289.652 363.443,287.800 362.855 C 286.920 362.576,285.840 362.188,285.400 361.994 C 284.570 361.627,281.465 360.572,279.427 359.964 C 278.782 359.771,278.422 359.754,278.627 359.925 M298.500 361.226 C 297.565 361.665,296.800 362.102,296.800 362.199 C 296.800 362.419,297.745 362.060,299.578 361.143 C 301.529 360.167,300.607 360.239,298.500 361.226 M294.400 363.094 C 293.630 363.440,292.370 363.855,291.600 364.016 L 290.200 364.308 291.425 364.354 C 292.099 364.379,293.539 363.959,294.625 363.421 C 296.799 362.343,296.627 362.094,294.400 363.094 " stroke="none" fill="#2cd4c4" fill-rule="evenodd"></path></g></svg>